<?xml version="1.0" encoding="UTF-8"?>
<!DOCTYPE svg PUBLIC "-//W3C//DTD SVG 1.1//EN" "http://www.w3.org/Graphics/SVG/1.1/DTD/svg11.dtd">
<!-- Creator: CorelDRAW -->
<svg xmlns="http://www.w3.org/2000/svg" xml:space="preserve" width="6in" height="4in" version="1.1" style="shape-rendering:geometricPrecision; text-rendering:geometricPrecision; image-rendering:optimizeQuality; fill-rule:evenodd; clip-rule:evenodd"
viewBox="0 0 6000 4000"
 xmlns:xlink="http://www.w3.org/1999/xlink"
 xmlns:xodm="http://www.corel.com/coreldraw/odm/2003">
 <defs>
  <style type="text/css">
   <![CDATA[
    .fil0 {fill:#071013;fill-rule:nonzero}
   ]]>
  </style>
 </defs>
 <g id="Layer_x0020_1">
  <metadata id="CorelCorpID_0Corel-Layer"/>
  <g id="_1748858295872">
   <g>
    <polygon class="fil0" points="2102.67,1621.68 2102.67,1919.75 2182.93,1919.75 2182.93,1812.75 2331.96,1812.75 2331.96,1743.96 2182.93,1743.96 2182.93,1690.46 2347.24,1690.46 2347.24,1621.68 "/>
    <path id="_1" class="fil0" d="M2524.94 1682.06c63.82,0 70.7,8.79 70.7,88.66 0,79.87 -6.88,88.66 -70.7,88.66 -63.82,0 -70.7,-8.79 -70.7,-88.66 0,-79.87 6.88,-88.66 70.7,-88.66zm-154.77 88.66c0,123.05 30.95,153.62 154.77,153.62 123.81,0 154.77,-30.57 154.77,-153.62 0,-123.05 -30.95,-153.62 -154.77,-153.62 -123.81,0 -154.77,30.57 -154.77,153.62z"/>
    <path id="_2" class="fil0" d="M3006.44 1793.26l-84.07 0c0.76,59.61 -6.11,66.11 -67.26,66.11 -61.52,0 -68.4,-8.79 -68.4,-88.66 0,-79.87 6.88,-88.66 68.4,-88.66 61.15,0 68.02,6.5 67.26,65.35l84.07 0c0.76,-104.32 -29.43,-130.31 -151.33,-130.31 -121.9,0 -152.47,30.57 -152.47,153.62 0,123.05 30.57,153.62 152.47,153.62 121.91,0 152.09,-26.37 151.33,-131.07z"/>
    <path id="_3" class="fil0" d="M3251.01 1621.68l-132.98 0 -98.21 298.07 86.37 0 17.96 -58.09 114.64 0 16.05 58.09 91.71 0 -95.54 -298.07zm-106.24 175.02l36.3 -110.06 2.3 0 35.54 110.06 -74.14 0z"/>
    <polygon id="_4" class="fil0" points="3367.56,1621.68 3367.56,1919.75 3593.03,1919.75 3593.03,1850.96 3447.81,1850.96 3447.81,1621.68 "/>
    <path id="_5" class="fil0" d="M3728.69 1621.68l0 298.07 80.25 0 0 -97.44 97.06 0c74.13,-3.82 92.48,-24.07 92.48,-101.27 0,-79.49 -19.87,-99.36 -99.35,-99.36l-170.44 0zm80.25 131.84l0 -66.87 69.55 0c35.92,0 39.74,3.44 39.74,34.78 0,29.04 -3.82,32.1 -39.74,32.1l-69.55 0z"/>
    <path id="_6" class="fil0" d="M4172.35 1682.06c63.82,0 70.7,8.79 70.7,88.66 0,79.87 -6.88,88.66 -70.7,88.66 -63.82,0 -70.7,-8.79 -70.7,-88.66 0,-79.87 6.88,-88.66 70.7,-88.66zm-154.77 88.66c0,123.05 30.95,153.62 154.77,153.62 123.81,0 154.77,-30.57 154.77,-153.62 0,-123.05 -30.95,-153.62 -154.77,-153.62 -123.81,0 -154.77,30.57 -154.77,153.62z"/>
    <polygon id="_7" class="fil0" points="4357.69,1919.75 4437.94,1919.75 4437.94,1621.68 4357.69,1621.68 "/>
    <polygon id="_8" class="fil0" points="4476.16,1919.75 4556.41,1919.75 4556.41,1757.34 4558.7,1757.34 4690.92,1919.75 4766.59,1919.75 4766.59,1621.68 4686.33,1621.68 4686.33,1784.47 4684.04,1784.47 4552.2,1621.68 4476.16,1621.68 "/>
    <polygon id="_9" class="fil0" points="4878.94,1919.75 4959.19,1919.75 4959.19,1690.46 5051.28,1690.46 5051.28,1621.68 4787.6,1621.68 4787.6,1690.46 4878.94,1690.46 "/>
    <path id="_10" class="fil0" d="M2102.67 2080.25l0 298.07 80.25 0 0 -97.44 97.06 0c74.13,-3.82 92.48,-24.07 92.48,-101.27 0,-79.49 -19.87,-99.36 -99.35,-99.36l-170.44 0zm80.25 131.84l0 -66.87 69.55 0c35.92,0 39.74,3.44 39.74,34.78 0,29.04 -3.82,32.1 -39.74,32.1l-69.55 0z"/>
    <path id="_11" class="fil0" d="M2573.47 2080.25l-170.44 0 0 298.07 80.25 0 0 -105.09 59.61 0c41.65,0 45.85,3.44 45.85,36.3l0 68.79 84.07 0 0 -73.37c0,-38.22 -20.25,-55.8 -60,-60 41.65,-5.73 60,-29.04 60,-78.34 0,-69.17 -19.87,-86.37 -99.35,-86.37zm-90.19 131.84l0 -66.87 69.55 0c35.92,0 39.74,3.44 39.74,32.86 0,30.57 -3.82,34.01 -39.74,34.01l-69.55 0z"/>
    <path id="_12" class="fil0" d="M2854.35 2140.63c63.82,0 70.7,8.79 70.7,88.66 0,79.87 -6.88,88.66 -70.7,88.66 -63.82,0 -70.7,-8.79 -70.7,-88.66 0,-79.87 6.88,-88.66 70.7,-88.66zm-154.77 88.66c0,123.05 30.95,153.62 154.77,153.62 123.81,0 154.77,-30.57 154.77,-153.62 0,-123.05 -30.95,-153.62 -154.77,-153.62 -123.81,0 -154.77,30.57 -154.77,153.62z"/>
    <path id="_13" class="fil0" d="M3039.69 2080.25l0 298.07 80.25 0 0 -97.44 97.06 0c74.13,-3.82 92.48,-24.07 92.48,-101.27 0,-79.49 -19.87,-99.36 -99.35,-99.36l-170.44 0zm80.25 131.84l0 -66.87 69.55 0c35.92,0 39.74,3.44 39.74,34.78 0,29.04 -3.82,32.1 -39.74,32.1l-69.55 0z"/>
    <polygon id="_14" class="fil0" points="3343.87,2305.71 3343.87,2378.32 3431.76,2378.32 3431.76,2305.71 "/>
    <path class="fil0" d="M3551.31 2064.09l-24.5 0 0 78.7 24.5 0c25.86,0 41.78,-14.79 41.78,-39.19 0,-24.39 -15.92,-39.52 -41.78,-39.52zm-14.23 70.24l0 -61.88 14.23 0c20.55,0 31.28,11.97 31.28,31.17 0,19.2 -10.72,30.72 -31.28,30.72l-14.23 0z"/>
    <path id="_1_0" class="fil0" d="M3632.95 2088.59c10.62,0 19.65,6.66 19.54,18.74l-39.07 0c1.13,-12.08 9.49,-18.74 19.54,-18.74zm28.91 35.12l-11.07 0c-2.26,6.66 -8.13,11.41 -17.39,11.41 -10.5,0 -19.31,-6.89 -20.1,-19.43l49.46 0c0.23,-2.15 0.34,-3.95 0.34,-6.21 0,-16.94 -11.74,-29.59 -29.7,-29.59 -18.07,0 -30.6,12.31 -30.6,31.84 0,19.65 12.99,32.07 30.6,32.07 15.36,0 25.3,-8.81 28.46,-20.1z"/>
    <polygon id="_2_1" class="fil0" points="3669.31,2080.91 3693.59,2142.79 3705.56,2142.79 3729.84,2080.91 3718.89,2080.91 3699.69,2133.31 3680.38,2080.91 "/>
    <path id="_3_2" class="fil0" d="M3766.31 2088.59c10.62,0 19.65,6.66 19.54,18.74l-39.07 0c1.13,-12.08 9.49,-18.74 19.54,-18.74zm28.91 35.12l-11.07 0c-2.26,6.66 -8.13,11.41 -17.39,11.41 -10.5,0 -19.31,-6.89 -20.1,-19.43l49.46 0c0.23,-2.15 0.34,-3.95 0.34,-6.21 0,-16.94 -11.74,-29.59 -29.7,-29.59 -18.07,0 -30.6,12.31 -30.6,31.84 0,19.65 12.99,32.07 30.6,32.07 15.36,0 25.3,-8.81 28.46,-20.1z"/>
    <polygon id="_4_3" class="fil0" points="3810.02,2142.79 3820.3,2142.79 3820.3,2059.23 3810.02,2059.23 "/>
    <path id="_5_4" class="fil0" d="M3896.52 2111.74c0,-19.54 -13.66,-31.84 -31.28,-31.84 -17.5,0 -31.28,12.31 -31.28,31.84 0,19.65 13.33,32.07 30.83,32.07 17.61,0 31.73,-12.42 31.73,-32.07zm-52.06 0c0,-15.58 9.82,-22.92 20.67,-22.92 10.61,0 20.89,7.34 20.89,22.92 0,15.7 -10.5,23.04 -21.23,23.04 -10.73,0 -20.33,-7.34 -20.33,-23.04z"/>
    <path id="_6_5" class="fil0" d="M3920.34 2092.31l0 -11.41 -10.28 0 0 91.24 10.28 0 0 -40.76c3.84,6.32 11.85,12.42 23.15,12.42 16.6,0 29.36,-12.98 29.36,-32.18 0,-19.31 -12.76,-31.73 -29.36,-31.73 -11.29,0 -19.42,5.87 -23.15,12.42zm42 19.31c0,14.57 -9.6,23.15 -21,23.15 -11.18,0 -21,-8.47 -21,-23.04 0,-14.34 9.82,-22.92 21,-22.92 11.41,0 21,8.24 21,22.81z"/>
    <path id="_7_6" class="fil0" d="M4075.72 2142.79l10.16 0 0 -36.47c0,-17.73 -10.95,-26.54 -25.07,-26.54 -9.48,0 -18.3,4.86 -21.91,13.78 -4.07,-9.26 -12.54,-13.78 -22.7,-13.78 -8.13,0 -15.47,3.5 -19.54,10.05l0 -8.92 -10.28 0 0 61.88 10.28 0 0 -34.1c0,-13.32 7.11,-19.99 17.5,-19.99 10.17,0 16.94,6.44 16.94,19.09l0 35 10.16 0 0 -34.1c0,-13.32 7.11,-19.99 17.5,-19.99 10.16,0 16.94,6.44 16.94,19.09l0 35z"/>
    <path id="_8_7" class="fil0" d="M4129.02 2088.59c10.62,0 19.65,6.66 19.54,18.74l-39.07 0c1.13,-12.08 9.49,-18.74 19.54,-18.74zm28.91 35.12l-11.07 0c-2.26,6.66 -8.13,11.41 -17.39,11.41 -10.5,0 -19.31,-6.89 -20.1,-19.43l49.46 0c0.23,-2.15 0.34,-3.95 0.34,-6.21 0,-16.94 -11.74,-29.59 -29.7,-29.59 -18.07,0 -30.6,12.31 -30.6,31.84 0,19.65 12.99,32.07 30.6,32.07 15.36,0 25.3,-8.81 28.46,-20.1z"/>
    <path id="_9_8" class="fil0" d="M4218 2142.79l10.16 0 0 -36.47c0,-17.73 -10.95,-26.54 -25.29,-26.54 -8.36,0 -15.81,3.5 -19.87,9.94l0 -8.81 -10.28 0 0 61.88 10.28 0 0 -34.22c0,-13.32 7.22,-19.87 17.73,-19.87 10.39,0 17.28,6.44 17.28,19.09l0 35z"/>
    <path id="_10_9" class="fil0" d="M4247.24 2125.85c0,12.42 6.21,16.94 17.17,16.94l9.26 0 0 -8.7 -7.57 0c-6.32,0 -8.58,-2.14 -8.58,-8.24l0 -36.48 16.15 0 0 -8.47 -16.15 0 0 -15.58 -10.28 0 0 15.58 -8.02 0 0 8.47 8.02 0 0 36.48z"/>
    <path id="_11_10" class="fil0" d="M4363.67 2080.91c0.56,-10.5 -7,-18.41 -19.42,-18.41 -12.76,0 -20.78,7.45 -20.78,17.5 0,5.76 1.92,10.16 6.78,15.81 -12.31,4.86 -18.52,13.55 -18.52,24.39 0,14.57 11.18,23.94 27.56,23.94 11.06,0 19.54,-3.84 27.1,-11.74l10.28 10.39 13.44 0 -17.73 -17.73c1.58,-2.26 3.05,-4.52 4.52,-7.11l9.26 -16.04 -11.07 0 -7.68 12.87c-0.68,1.13 -1.35,2.15 -2.03,3.16l-23.49 -23.6c-5.53,-5.87 -8.13,-9.71 -8.13,-14.34 0,-5.2 3.95,-9.04 10.05,-9.04 5.53,0 9.82,3.5 9.6,9.94l10.28 0zm-24.39 54.43c-10.28,0 -17.28,-6.66 -17.28,-15.47 0,-7.91 4.63,-13.78 14.46,-17.5l23.15 23.26c-5.87,6.55 -12.19,9.71 -20.32,9.71z"/>
    <polygon id="_12_11" class="fil0" points="3526.81,2262.33 3537.09,2262.33 3537.09,2203.95 3563.17,2262.33 3570.4,2262.33 3596.37,2204.06 3596.37,2262.33 3606.65,2262.33 3606.65,2184.19 3595.69,2184.19 3566.78,2248.78 3537.87,2184.19 3526.81,2184.19 "/>
    <path id="_13_12" class="fil0" d="M3620.19 2231.17c0,19.2 12.76,32.18 29.25,32.18 11.41,0 19.42,-5.87 23.15,-12.54l0 11.52 10.39 0 0 -61.88 -10.39 0 0 11.29c-3.61,-6.43 -11.52,-12.31 -23.04,-12.31 -16.6,0 -29.36,12.42 -29.36,31.73zm52.4 0.11c0,14.57 -9.71,23.04 -21,23.04 -11.29,0 -20.89,-8.58 -20.89,-23.15 0,-14.57 9.6,-22.81 20.89,-22.81 11.29,0 21,8.58 21,22.92z"/>
    <path id="_14_13" class="fil0" d="M3745.65 2262.33l10.16 0 0 -36.47c0,-17.73 -10.95,-26.54 -25.29,-26.54 -8.36,0 -15.81,3.5 -19.87,9.94l0 -8.81 -10.28 0 0 61.88 10.28 0 0 -34.22c0,-13.32 7.22,-19.87 17.73,-19.87 10.39,0 17.28,6.44 17.28,19.09l0 35z"/>
    <path id="_15" class="fil0" d="M3768.8 2231.17c0,19.2 12.76,32.18 29.25,32.18 11.41,0 19.42,-5.87 23.15,-12.54l0 11.52 10.39 0 0 -61.88 -10.39 0 0 11.29c-3.61,-6.43 -11.52,-12.31 -23.04,-12.31 -16.6,0 -29.36,12.42 -29.36,31.73zm52.4 0.11c0,14.57 -9.71,23.04 -21,23.04 -11.29,0 -20.89,-8.58 -20.89,-23.15 0,-14.57 9.6,-22.81 20.89,-22.81 11.29,0 21,8.58 21,22.92z"/>
    <path id="_16" class="fil0" d="M3845.13 2231.17c0,19.2 12.76,32.18 29.36,32.18 11.29,0 19.31,-5.98 23.04,-12.65l0 12.98c0,13.21 -8.24,20.21 -19.2,20.21 -10.17,0 -17.5,-5.08 -19.76,-12.53l-10.16 0c2.03,13.21 13.67,21.45 29.93,21.45 18.18,0 29.59,-12.08 29.59,-29.13l0 -63.24 -10.39 0 0 11.29c-3.61,-6.66 -11.74,-12.31 -23.04,-12.31 -16.6,0 -29.36,12.42 -29.36,31.73zm52.4 0.11c0,14.57 -9.71,23.04 -21,23.04 -11.29,0 -20.89,-8.58 -20.89,-23.15 0,-14.57 9.6,-22.81 20.89,-22.81 11.29,0 21,8.58 21,22.92z"/>
    <path id="_17" class="fil0" d="M3951.61 2208.13c10.62,0 19.65,6.66 19.54,18.74l-39.07 0c1.13,-12.08 9.49,-18.74 19.54,-18.74zm28.91 35.12l-11.07 0c-2.26,6.66 -8.13,11.41 -17.39,11.41 -10.5,0 -19.31,-6.89 -20.1,-19.43l49.46 0c0.23,-2.15 0.34,-3.95 0.34,-6.21 0,-16.94 -11.74,-29.59 -29.7,-29.59 -18.07,0 -30.6,12.31 -30.6,31.84 0,19.65 12.99,32.07 30.6,32.07 15.36,0 25.3,-8.81 28.46,-20.1z"/>
    <path id="_18" class="fil0" d="M4084.64 2262.33l10.16 0 0 -36.47c0,-17.73 -10.95,-26.54 -25.07,-26.54 -9.48,0 -18.3,4.86 -21.91,13.78 -4.07,-9.26 -12.54,-13.78 -22.7,-13.78 -8.13,0 -15.47,3.5 -19.54,10.05l0 -8.92 -10.28 0 0 61.88 10.28 0 0 -34.1c0,-13.32 7.11,-19.99 17.5,-19.99 10.17,0 16.94,6.44 16.94,19.09l0 35 10.16 0 0 -34.1c0,-13.32 7.11,-19.99 17.5,-19.99 10.16,0 16.94,6.44 16.94,19.09l0 35z"/>
    <path id="_19" class="fil0" d="M4137.93 2208.13c10.62,0 19.65,6.66 19.54,18.74l-39.07 0c1.13,-12.08 9.49,-18.74 19.54,-18.74zm28.91 35.12l-11.07 0c-2.26,6.66 -8.13,11.41 -17.39,11.41 -10.5,0 -19.31,-6.89 -20.1,-19.43l49.46 0c0.23,-2.15 0.34,-3.95 0.34,-6.21 0,-16.94 -11.74,-29.59 -29.7,-29.59 -18.07,0 -30.6,12.31 -30.6,31.84 0,19.65 12.99,32.07 30.6,32.07 15.36,0 25.3,-8.81 28.46,-20.1z"/>
    <path id="_20" class="fil0" d="M4226.92 2262.33l10.16 0 0 -36.47c0,-17.73 -10.95,-26.54 -25.29,-26.54 -8.36,0 -15.81,3.5 -19.87,9.94l0 -8.81 -10.28 0 0 61.88 10.28 0 0 -34.22c0,-13.32 7.22,-19.87 17.73,-19.87 10.39,0 17.28,6.44 17.28,19.09l0 35z"/>
    <path id="_21" class="fil0" d="M4256.16 2245.39c0,12.42 6.21,16.94 17.17,16.94l9.26 0 0 -8.7 -7.57 0c-6.32,0 -8.58,-2.14 -8.58,-8.24l0 -36.48 16.15 0 0 -8.47 -16.15 0 0 -15.58 -10.28 0 0 15.58 -8.02 0 0 8.47 8.02 0 0 36.48z"/>
    <path id="_22" class="fil0" d="M3577.96 2360.41c0,-29.13 -42.46,-16.48 -42.46,-36.81 0,-8.47 6.66,-12.87 15.13,-12.65 9.6,0.11 14.57,6.1 15.24,11.41l11.3 0c-1.24,-11.97 -11.07,-20.21 -26.09,-20.21 -15.58,0 -26.08,8.81 -26.08,21.79 0,29.25 42.57,15.7 42.57,36.93 0,7.45 -5.87,13.1 -15.81,13.1 -10.95,0 -15.58,-6.55 -16.26,-13.1l-10.95 0c0.22,12.99 11.41,21.8 27.21,21.8 17.05,0 26.2,-11.07 26.2,-22.25z"/>
    <path id="_23" class="fil0" d="M3619.4 2327.67c10.62,0 19.65,6.66 19.54,18.74l-39.07 0c1.13,-12.08 9.49,-18.74 19.54,-18.74zm28.91 35.12l-11.07 0c-2.26,6.66 -8.13,11.41 -17.39,11.41 -10.5,0 -19.31,-6.89 -20.1,-19.43l49.46 0c0.23,-2.15 0.34,-3.95 0.34,-6.21 0,-16.94 -11.74,-29.59 -29.7,-29.59 -18.07,0 -30.6,12.31 -30.6,31.84 0,19.65 12.99,32.07 30.6,32.07 15.36,0 25.3,-8.81 28.46,-20.1z"/>
    <path id="_24" class="fil0" d="M3673.38 2348.22c0,-14.34 7.45,-18.74 17.28,-18.74l2.71 0 0 -10.62c-9.82,0 -16.48,4.29 -19.98,11.18l0 -10.05 -10.28 0 0 61.88 10.28 0 0 -33.65z"/>
    <polygon id="_25" class="fil0" points="3697.88,2319.99 3722.16,2381.87 3734.13,2381.87 3758.41,2319.99 3747.46,2319.99 3728.26,2372.39 3708.95,2319.99 "/>
    <path id="_26" class="fil0" d="M3768.57 2381.87l10.28 0 0 -61.88 -10.28 0 0 61.88zm5.31 -71.93c3.72,0 6.77,-3.05 6.77,-7 0,-3.95 -3.05,-7 -6.77,-7 -3.95,0 -7,3.05 -7,7 0,3.95 3.05,7 7,7z"/>
    <path id="_27" class="fil0" d="M3792.51 2350.81c0,19.65 12.54,32.07 30.15,32.07 15.36,0 25.41,-8.58 28.57,-20.89l-11.07 0c-2.26,7.79 -8.35,12.2 -17.5,12.2 -11.29,0 -19.65,-8.02 -19.65,-23.38 0,-15.13 8.35,-23.15 19.65,-23.15 9.15,0 15.36,4.74 17.5,12.19l11.07 0c-3.16,-12.98 -13.21,-20.89 -28.57,-20.89 -17.61,0 -30.15,12.42 -30.15,31.84z"/>
    <path id="_28" class="fil0" d="M3891.2 2327.67c10.62,0 19.65,6.66 19.54,18.74l-39.07 0c1.13,-12.08 9.49,-18.74 19.54,-18.74zm28.91 35.12l-11.07 0c-2.26,6.66 -8.13,11.41 -17.39,11.41 -10.5,0 -19.31,-6.89 -20.1,-19.43l49.46 0c0.23,-2.15 0.34,-3.95 0.34,-6.21 0,-16.94 -11.74,-29.59 -29.7,-29.59 -18.07,0 -30.6,12.31 -30.6,31.84 0,19.65 12.99,32.07 30.6,32.07 15.36,0 25.3,-8.81 28.46,-20.1z"/>
    <path id="_29" class="fil0" d="M3979.4 2365.04c-0.45,-22.13 -36.36,-14.11 -36.36,-28.8 0,-4.97 4.52,-8.58 12.08,-8.58 8.24,0 12.98,4.52 13.44,10.72l10.28 0c-0.68,-12.08 -9.71,-19.42 -23.37,-19.42 -13.78,0 -22.7,7.79 -22.7,17.28 0,23.04 36.59,15.02 36.59,28.8 0,5.08 -4.52,9.15 -12.65,9.15 -8.69,0 -14,-4.52 -14.57,-10.5l-10.61 0c0.68,11.29 10.84,19.2 25.3,19.2 13.66,0 22.58,-7.68 22.58,-17.84z"/>
    <polygon id="_30" class="fil0" points="4024,2303.17 4024,2381.87 4061.83,2381.87 4061.83,2373.52 4034.28,2373.52 4034.28,2303.17 "/>
    <path id="_31" class="fil0" d="M4075.04 2364.93c0,12.42 6.21,16.94 17.17,16.94l9.26 0 0 -8.7 -7.57 0c-6.32,0 -8.58,-2.14 -8.58,-8.24l0 -36.48 16.15 0 0 -8.47 -16.15 0 0 -15.58 -10.28 0 0 15.58 -8.02 0 0 8.47 8.02 0 0 36.48z"/>
    <path id="_32" class="fil0" d="M4110.05 2350.7c0,19.2 12.76,32.18 29.36,32.18 11.29,0 19.31,-5.76 23.04,-12.65l0 11.63 10.39 0 0 -83.56 -10.39 0 0 32.75c-4.29,-7.11 -13.21,-12.08 -22.93,-12.08 -16.71,0 -29.47,12.42 -29.47,31.73zm52.4 0.11c0,14.57 -9.71,23.04 -21,23.04 -11.29,0 -20.89,-8.58 -20.89,-23.15 0,-14.57 9.6,-22.81 20.89,-22.81 11.29,0 21,8.58 21,22.92z"/>
   </g>
   <g>
    <path class="fil0" d="M1810.8 1697.8l-205.25 0 -41.07 -71.12 287.38 0 -41.07 71.12zm-369.47 -142.21l123.16 213.31 205.27 0 -184.74 319.97 41.05 71.12 348.94 -604.4 -533.67 0z"/>
    <polygon class="fil0" points="1153.94,1768.89 1482.37,1768.89 1441.32,1697.8 1112.89,1697.8 1071.85,1626.68 1400.25,1626.68 1359.21,1555.59 948.69,1555.59 1461.85,2444.41 1502.9,2373.29 "/>
    <path class="fil0" d="M1461.85 2017.77l-61.58 -106.67 123.16 0 -61.58 106.67zm41.05 71.09l143.67 -248.85 -369.45 0 266.83 462.18 41.07 -71.11 -82.11 -142.21z"/>
   </g>
  </g>
 </g>
</svg>
